<?xml version="1.0" encoding="UTF-8"?>
<svg version="1.1" xmlns="http://www.w3.org/2000/svg" width="1080" height="1080">
<path d="M0 0 C17.08683974 13.73421219 29.50305558 31.35171023 32.375 53.51953125 C34.11327201 75.54669684 30.2412018 97.2073595 15.58203125 114.546875 C14.93621094 115.25328125 14.29039062 115.9596875 13.625 116.6875 C12.82449219 117.57953125 12.02398437 118.4715625 11.19921875 119.390625 C-3.17024881 134.61269483 -22.37957632 143.46398197 -43.32177734 144.09155273 C-53.9194821 144.21524378 -63.32435123 143.00698033 -73.375 139.6875 C-74.75171875 139.254375 -74.75171875 139.254375 -76.15625 138.8125 C-94.69215943 132.24281058 -109.10937456 116.91552609 -118.1875 99.9375 C-127.30998606 80.46205302 -128.71912316 58.01134082 -121.375 37.6875 C-121.08625 36.79417969 -120.7975 35.90085937 -120.5 34.98046875 C-114.22354915 17.18785138 -99.45303262 2.018547 -82.74243164 -6.27612305 C-56.05433977 -18.87911444 -24.23889421 -17.53517955 0 0 Z M-97.6875 25.5 C-101.73521875 30.85825064 -104.76293279 36.51130371 -107.375 42.6875 C-107.71660156 43.49058594 -108.05820313 44.29367187 -108.41015625 45.12109375 C-113.56040234 60.09273937 -111.56752845 78.79126154 -104.8671875 92.8515625 C-96.31692834 108.56017816 -83.13101328 119.52662392 -66.375 125.6875 C-49.62974568 130.5917989 -31.29475065 128.73200564 -15.75 121.125 C-0.00679807 111.92021183 11.51689261 97.22271234 16.4375 79.75 C17.76923575 73.87964758 18.76645281 67.65541074 17.625 61.6875 C15.74593612 59.43416672 14.24496489 57.99748245 11.625 56.6875 C7.25454082 56.45224161 2.88019006 56.45908344 -1.49584961 56.44726562 C-3.66884983 56.4375831 -5.84089463 56.40657174 -8.01367188 56.375 C-9.40103606 56.36846731 -10.788407 56.36321788 -12.17578125 56.359375 C-13.43559814 56.3500293 -14.69541504 56.34068359 -15.9934082 56.33105469 C-19.64950255 56.71643464 -21.47827087 57.4674005 -24.375 59.6875 C-26.69037595 62.50458195 -26.69037595 62.50458195 -26.1875 65.6875 C-25.33239717 68.84480274 -24.93411328 69.77631676 -22.375 71.6875 C-19.86138139 72.10078556 -19.86138139 72.10078556 -17.05078125 71.98046875 C-15.50874023 71.9659668 -15.50874023 71.9659668 -13.93554688 71.95117188 C-12.86369141 71.92603516 -11.79183594 71.90089844 -10.6875 71.875 C-9.60404297 71.86146484 -8.52058594 71.84792969 -7.40429688 71.83398438 C-4.72736595 71.79860643 -2.05143162 71.74924189 0.625 71.6875 C-3.51263274 87.21579227 -9.67372106 97.95249101 -23.5546875 106.328125 C-31.13307999 109.9808682 -37.85032295 111.21665665 -46.25 111.125 C-47.70635864 111.11364014 -47.70635864 111.11364014 -49.19213867 111.10205078 C-61.63356557 110.81560838 -70.77894042 106.51657591 -80.0625 98.3125 C-91.72869866 85.069788 -94.45460261 73.01312269 -93.375 55.6875 C-91.62352389 44.09510303 -84.41341844 33.89343421 -75.375 26.6875 C-66.29010773 21.16322306 -57.67064162 18.30097987 -47.0625 18.375 C-45.79792969 18.38345947 -45.79792969 18.38345947 -44.5078125 18.39208984 C-34.50070279 18.58735995 -27.52641271 21.24404098 -19.015625 26.48046875 C-15.87937019 27.91405268 -13.78861907 28.05174389 -10.375 27.6875 C-7.29166667 25.77083333 -7.29166667 25.77083333 -5.375 22.6875 C-4.96685595 19.12558422 -4.96685595 19.12558422 -6.375 15.6875 C-14.85307784 6.2928732 -29.03963358 2.01829358 -41.30859375 1.37109375 C-63.82772829 0.65067792 -82.84051209 7.91506945 -97.6875 25.5 Z M-77.77734375 38.59375 C-84.48530824 47.38462767 -87.73553947 57.48522716 -87.25 68.53125 C-85.87924028 78.46925796 -81.24577221 88.03437308 -73.85546875 94.8671875 C-64.27758372 101.89599762 -54.25008181 105.60096783 -42.375 104.6875 C-31.1731477 102.80456756 -22.36884623 97.76544855 -15.0703125 89.078125 C-12.54715855 85.5201291 -10.84577156 81.78050243 -9.375 77.6875 C-14.43175817 77.34402209 -19.32582568 77.16143135 -24.375 77.6875 C-27.375 80.27083333 -27.375 80.27083333 -29.375 83.6875 C-36.4507279 88.5771255 -42.83407764 90.42780467 -51.375 89.6875 C-58.80244423 88.22433069 -63.92202057 84.88624126 -68.6953125 79.08203125 C-72.80397461 72.57425526 -72.06399558 64.09019673 -71.375 56.6875 C-70.3515625 54.203125 -70.3515625 54.203125 -69.375 52.6875 C-69.01148438 53.30238281 -68.64796875 53.91726563 -68.2734375 54.55078125 C-64.16819038 61.17310458 -64.16819038 61.17310458 -57.375 64.6875 C-52.57083163 65.29893961 -49.09494504 64.73087334 -44.95703125 62.078125 C-41.48625628 59.02727095 -39.56416355 55.21283339 -39.21875 50.6015625 C-39.59582931 45.68067748 -41.38603114 42.54423401 -44.375 38.6875 C-33.49812766 42.76415869 -28.278291 46.73623803 -22.375 56.6875 C-17.755 56.3575 -13.135 56.0275 -8.375 55.6875 C-11.60855433 44.37005985 -17.28936278 35.8110721 -27.34765625 29.4375 C-44.38502307 20.22445074 -64.72138266 24.51923875 -77.77734375 38.59375 Z " fill="#21AC56" transform="translate(330.375,433.3125)"/>
<path d="M0 0 C5.65667966 4.67618852 9.37943612 9.70690862 12.65625 16.25 C12.98496094 16.89582031 13.31367188 17.54164063 13.65234375 18.20703125 C16.24526674 24.10003805 17.03247108 30.86242038 16.65625 37.25 C15.00172945 40.76214092 13.92327439 42.07198374 10.65625 44.25 C7.82783508 44.49050903 7.82783508 44.49050903 4.34887695 44.47705078 C2.39719353 44.47682419 2.39719353 44.47682419 0.40608215 44.47659302 C-1.01443637 44.46637969 -2.43495333 44.4559477 -3.85546875 44.4453125 C-5.30849513 44.44158183 -6.76152403 44.43873511 -8.21455383 44.43673706 C-12.03686482 44.42910481 -15.85902354 44.40945992 -19.68127441 44.3873291 C-23.5824172 44.36686183 -27.48358461 44.35773346 -31.38476562 44.34765625 C-39.03782979 44.32621357 -46.69076855 44.29208264 -54.34375 44.25 C-53.40945664 45.69303336 -52.4695608 47.13244033 -51.52734375 48.5703125 C-51.00454834 49.37227051 -50.48175293 50.17422852 -49.94311523 51.00048828 C-46.37461224 56.01959782 -41.42931978 59.87413205 -35.34375 61.25 C-27.12615194 62.05315023 -20.27848532 61.98054072 -13.34375 57.25 C-9.42665082 54.63860055 -7.10927482 53.55502763 -2.34375 54.25 C1.40410043 56.33213913 2.45107295 57.5447039 3.65625 61.6875 C3.65625 65.76534052 3.00937168 66.99924354 0.65625 70.25 C-10.28925803 79.30962658 -22.44858762 81.50142767 -36.34375 80.25 C-49.20574082 77.94180977 -58.88243198 71.20785672 -66.6875 60.84375 C-69.22689449 56.86696241 -70.94758504 52.74612445 -72.34375 48.25 C-72.53453125 47.65832031 -72.7253125 47.06664062 -72.921875 46.45703125 C-75.11608251 34.97807527 -73.95048826 21.70744262 -67.765625 11.6953125 C-66.06494409 9.42007723 -64.27002506 7.33611491 -62.34375 5.25 C-61.82039063 4.62480469 -61.29703125 3.99960937 -60.7578125 3.35546875 C-45.047441 -14.23248374 -17.85698495 -13.33321543 0 0 Z M-51.34375 19.25 C-52.33375 21.56 -53.32375 23.87 -54.34375 26.25 C-37.51375 26.25 -20.68375 26.25 -3.34375 26.25 C-5.77951992 18.94269025 -9.05688595 14.7866898 -15.70703125 10.8515625 C-28.7116505 5.00259499 -42.21239374 8.27997698 -51.34375 19.25 Z " fill="#1EAB54" transform="translate(438.34375,481.75)"/>
<path d="M0 0 C9.96524093 7.61596225 16.51084128 17.3867472 18.53515625 29.9375 C19.03090369 34.9646889 19.35110132 38.60478971 16.66015625 43 C13.19159577 46.16251102 11.05654898 46.07936324 6.43310547 46.14282227 C5.15192841 46.16276749 3.87075134 46.18271271 2.55075073 46.20326233 C1.14711631 46.22024669 -0.25651938 46.23712549 -1.66015625 46.25390625 C-3.09219972 46.2744754 -4.52423712 46.29547186 -5.95626831 46.31687927 C-9.72750938 46.37210403 -13.49880527 46.42151147 -17.2701416 46.46972656 C-21.11764411 46.51993867 -24.96506688 46.57562624 -28.8125 46.63085938 C-36.36321375 46.73844587 -43.91399375 46.83988971 -51.46484375 46.9375 C-50.52027639 48.39544295 -49.57025145 49.84985109 -48.61791992 51.30273438 C-48.08945969 52.11303101 -47.56099945 52.92332764 -47.01652527 53.75817871 C-45.22057794 56.2805689 -43.42853521 57.84585975 -40.77734375 59.4375 C-40.03097656 59.9015625 -39.28460937 60.365625 -38.515625 60.84375 C-32.60064607 63.99840543 -25.9809948 63.57661076 -19.46484375 62.9375 C-14.65250348 61.27977867 -10.67657582 58.74532138 -6.46484375 55.9375 C-2.97450648 55.62019661 -0.36727148 55.58127853 2.91015625 56.875 C5.56438284 60.24382606 5.91906865 63.72170728 5.53515625 67.9375 C1.7958018 74.74846703 -5.58601788 78.13687885 -12.6875 80.7578125 C-25.08373856 84.04802909 -38.43021806 82.49321577 -49.58984375 76.3125 C-60.31694631 69.36542406 -67.09355389 60.24649237 -70.83984375 48 C-73.39374432 35.2831549 -71.2695082 22.10791921 -64.1875 11.25 C-48.93062748 -9.23088102 -21.32397975 -14.72735292 0 0 Z M-48.46484375 19.9375 C-49.78484375 22.5775 -51.10484375 25.2175 -52.46484375 27.9375 C-35.30484375 27.9375 -18.14484375 27.9375 -0.46484375 27.9375 C-4.92003239 19.02712273 -8.74505692 14.36306945 -17.9453125 10.6328125 C-29.14609963 7.54174256 -41.01239894 10.87126543 -48.46484375 19.9375 Z " fill="#1EAB54" transform="translate(616.46484375,480.0625)"/>
<path d="M0 0 C9.56546602 8.11383779 15.91740728 18.0458744 17.29418945 30.70498657 C17.42502615 33.5740892 17.4681613 36.42871729 17.46875 39.30078125 C17.48017029 40.85988472 17.48017029 40.85988472 17.49182129 42.45048523 C17.5025534 44.62948214 17.50550372 46.80853019 17.50097656 48.98754883 C17.4999974 52.32133538 17.54184088 55.65286891 17.5859375 58.98632812 C17.59114028 61.11197439 17.59383276 63.23762861 17.59375 65.36328125 C17.61014526 66.35604568 17.62654053 67.34881012 17.64343262 68.37165833 C17.59659838 73.04400715 17.52912209 75.28571862 14.68164062 79.12963867 C11.14486868 81.59642763 9.23051943 81.67990491 5 81 C0.34481424 78.16640867 0.34481424 78.16640867 -0.6328125 74.859375 C-0.81457031 73.93898438 -0.81457031 73.93898438 -1 73 C-1.68964844 73.40992188 -2.37929688 73.81984375 -3.08984375 74.2421875 C-14.50184404 80.78569384 -25.2875625 82.84315575 -38.4375 80.34765625 C-50.65249563 76.99141335 -60.64559211 69.7327843 -67.3125 58.859375 C-73.19526162 47.52640776 -74.8305578 34.28602869 -71 22 C-66.40136057 10.29985508 -59.22071761 0.93476731 -48 -5 C-32.02802464 -11.74313529 -14.01646507 -10.54681552 0 0 Z M-49.52734375 18.9921875 C-54.33856073 25.55177776 -56.23492133 32.96677436 -55 41 C-52.70152287 49.30893337 -48.98668407 55.47001573 -41.375 59.8125 C-34.06497381 63.66710425 -26.19174934 64.53246118 -18.16796875 62.1640625 C-10.74174443 58.76465413 -6.00008796 53.66682793 -2.125 46.5625 C0.45119477 38.4045499 0.51616164 31.92734624 -3 24 C-6.85016475 17.34654309 -11.83427143 13.03442558 -18.6875 9.6875 C-30.85092562 7.16301544 -41.01941033 9.69983469 -49.52734375 18.9921875 Z " fill="#1CAA52" transform="translate(779,481)"/>
<path d="M0 0 C2.875 1.8125 2.875 1.8125 5 4 C5 4.99 5 5.98 5 7 C5.61746094 6.66226562 6.23492187 6.32453125 6.87109375 5.9765625 C17.94614223 0.14404077 29.32821876 -1.96351781 41.6796875 1.1796875 C53.21021839 5.25613782 62.19111887 12.26630481 68 23 C73.03815572 33.96833771 72.61378906 45.38821652 72.52148438 57.21386719 C72.49986328 60.52091266 72.52145923 63.82582925 72.546875 67.1328125 C72.54423472 69.24479644 72.53911597 71.35677906 72.53125 73.46875 C72.53934692 74.45210327 72.54744385 75.43545654 72.55578613 76.4486084 C72.49584397 80.81596023 72.42343968 83.31304822 70.09179688 87.09570312 C67.5855418 89.37730789 66.56317509 89.93742499 63.1875 90.3125 C59.2692355 89.92835642 57.78706733 88.70743683 55 86 C53.82262613 83.64525227 53.86952405 82.22644906 53.8581543 79.60131836 C53.84760262 78.23365578 53.84760262 78.23365578 53.83683777 76.83836365 C53.83267349 75.84885208 53.82850922 74.85934052 53.82421875 73.83984375 C53.80100559 71.74543282 53.77688766 69.65103177 53.75195312 67.55664062 C53.71694888 64.25424749 53.68756009 60.9522136 53.67407227 57.6496582 C53.65850699 54.46260803 53.61822542 51.27661216 53.57421875 48.08984375 C53.57612717 47.1145018 53.57803558 46.13915985 53.58000183 45.13426208 C53.44845948 37.68535035 51.87987735 31.49199704 47.0703125 25.66015625 C40.4826365 20.24979584 35.31175716 18.48629861 26.7421875 18.6953125 C19.38601406 19.5126651 15.11901253 23.43520163 10.4453125 28.90234375 C6.53106575 34.58329106 6.7058973 39.91327512 6.69140625 46.59375 C6.66625446 48.69661745 6.64085632 50.79948197 6.61523438 52.90234375 C6.58646025 56.20718681 6.56243211 59.5119791 6.54370117 62.81689453 C6.52205354 66.0136074 6.48262449 69.20973836 6.44140625 72.40625 C6.44129044 73.39282593 6.44117462 74.37940186 6.4410553 75.39587402 C6.31576858 84.07901465 6.31576858 84.07901465 3 88 C-0.48804095 90.32536063 -1.90140754 90.33457898 -6 90 C-8.48821413 89.17059529 -9.61807866 88.56251074 -11.09121704 86.39280701 C-12.34297622 83.09695061 -12.29498359 79.94170377 -12.29052734 76.46508789 C-12.29724457 75.71175674 -12.30396179 74.9584256 -12.31088257 74.18226624 C-12.32985752 71.69566222 -12.3337863 69.20932812 -12.3359375 66.72265625 C-12.34236515 64.99157094 -12.34909348 63.26048672 -12.35610962 61.52940369 C-12.36808065 57.90214519 -12.37179056 54.27498193 -12.37060547 50.64770508 C-12.37040214 46.0026247 -12.39771885 41.35815519 -12.43214989 36.71321964 C-12.45439887 33.13839417 -12.45844365 29.56371628 -12.45738602 25.98882866 C-12.45974443 24.2764214 -12.46858155 22.56401023 -12.48405075 20.85167122 C-12.50367347 18.45544876 -12.49788858 16.06055096 -12.48583984 13.66430664 C-12.49707886 12.95920959 -12.50831787 12.25411255 -12.51989746 11.52764893 C-12.45903298 6.75804351 -11.36959307 4.35164959 -8 1 C-5.14675563 -0.42662219 -3.16545451 -0.31033868 0 0 Z " fill="#1FAB54" transform="translate(470,472)"/>
<path d="M0 0 C3.54865222 2.25823323 5.262337 4.24032914 7 8 C7.52207031 7.67386719 8.04414062 7.34773438 8.58203125 7.01171875 C20.33911116 0.031596 32.06741783 -1.67985831 45.4375 1.1875 C50.1449806 2.52015506 53.31681331 3.68773568 56 8 C56.656549 11.02373944 56.45529166 12.81295838 56 16 C53.99199037 19.01201444 52.62881216 19.80436955 49.1875 20.875 C46.08881644 20.996517 44.02327671 20.4308631 41.109375 19.49609375 C31.26857293 17.18168289 23.56801129 19.5832658 15.25 24.6875 C10.34245571 29.73136497 6.88987514 36.3023216 6.8581543 43.39208984 C6.84760262 44.71894302 6.84760262 44.71894302 6.83683777 46.07260132 C6.83267349 47.02575226 6.82850922 47.9789032 6.82421875 48.9609375 C6.80102309 50.97917713 6.77690586 52.99740633 6.75195312 55.015625 C6.716821 58.19766238 6.68748181 61.37931558 6.67407227 64.56152344 C6.65859768 67.63263399 6.61839443 70.70262322 6.57421875 73.7734375 C6.57612717 74.72253998 6.57803558 75.67164246 6.58000183 76.64950562 C6.50044857 80.94713061 6.39840578 83.35853971 4.08911133 87.07666016 C1.52846065 89.43412259 0.61326945 89.96000417 -2.875 90.1875 C-5.96075154 90.00235491 -7.51023567 89.77840309 -10 88 C-12.45311756 84.38693934 -12.29592516 80.67628276 -12.29052734 76.46508789 C-12.29724457 75.71175674 -12.30396179 74.9584256 -12.31088257 74.18226624 C-12.32985752 71.69566222 -12.3337863 69.20932812 -12.3359375 66.72265625 C-12.34236515 64.99157094 -12.34909348 63.26048672 -12.35610962 61.52940369 C-12.36808065 57.90214519 -12.37179056 54.27498193 -12.37060547 50.64770508 C-12.37040214 46.0026247 -12.39771885 41.35815519 -12.43214989 36.71321964 C-12.45439887 33.13839417 -12.45844365 29.56371628 -12.45738602 25.98882866 C-12.45974443 24.2764214 -12.46858155 22.56401023 -12.48405075 20.85167122 C-12.50367347 18.45544876 -12.49788858 16.06055096 -12.48583984 13.66430664 C-12.49707886 12.95920959 -12.50831787 12.25411255 -12.51989746 11.52764893 C-12.45903298 6.75804351 -11.36959307 4.35164959 -8 1 C-5.14675563 -0.42662219 -3.16545451 -0.31033868 0 0 Z " fill="#1FAB55" transform="translate(650,472)"/>
<path d="M0 0 C2.84817036 2.01609236 4.71106893 3.62395316 5.44875526 7.13721657 C5.61695606 9.83944104 5.6181158 12.49920543 5.56762695 15.20629883 C5.56835709 16.23115387 5.56908722 17.25600891 5.56983948 18.31192017 C5.56636037 21.69416513 5.52748186 25.07502732 5.48828125 28.45703125 C5.47895433 30.80400337 5.47183765 33.15098524 5.46684265 35.49797058 C5.44776364 41.67136573 5.39865391 47.8441715 5.34332275 54.01733398 C5.29215044 60.31811551 5.26933285 66.61899239 5.24414062 72.91992188 C5.19053698 85.28020669 5.10521235 97.64005431 5 110 C6.2684375 110.1340625 7.536875 110.268125 8.84375 110.40625 C11.69615779 110.70772399 12.97815396 110.98689237 15.5 112.5 C17.41352561 115.68920935 17.52230736 118.11926475 17.62890625 121.78125 C16.64031706 125.26894354 15.12219663 126.2096216 12 128 C8.81803874 128.59245491 5.72922318 128.6045343 2.5 128.5625 C1.65824219 128.58634766 0.81648437 128.61019531 -0.05078125 128.63476562 C-1.27861328 128.63186523 -1.27861328 128.63186523 -2.53125 128.62890625 C-3.26923828 128.62963135 -4.00722656 128.63035645 -4.76757812 128.63110352 C-8.40735904 127.60214095 -9.71352386 126.01926906 -12 123 C-12.7504663 119.22672545 -12.67267245 115.5004058 -12.63110352 111.66381836 C-12.63825882 110.51859207 -12.64541412 109.37336578 -12.65278625 108.19343567 C-12.66969305 104.40849912 -12.65025835 100.62474353 -12.62890625 96.83984375 C-12.6297347 94.21098228 -12.63219316 91.58212085 -12.63621521 88.95326233 C-12.64073274 83.44453326 -12.62488644 77.93614413 -12.59692383 72.42749023 C-12.56485709 66.06128261 -12.56489462 59.69568745 -12.5821386 53.32943624 C-12.59800775 47.20029997 -12.59117132 41.071424 -12.57420158 34.94229317 C-12.56901189 32.33593817 -12.56951107 29.72956552 -12.57574654 27.12321281 C-12.58118493 23.48401569 -12.56086611 19.84586507 -12.53344727 16.20678711 C-12.53997314 15.12563629 -12.54649902 14.04448547 -12.55322266 12.93057251 C-12.45956426 5.63526174 -12.45956426 5.63526174 -10.09165955 2.36207581 C-6.50261031 0.02490906 -4.32541631 -0.50887251 0 0 Z " fill="#18A84F" transform="translate(811,434)"/>
<path d="M0 0 C5.13533507 3.0508016 9.36714919 7.87647435 11.5625 13.4375 C11.77817213 16.1571437 11.89034341 18.7719516 11.8984375 21.4921875 C11.9050943 22.27135529 11.9117511 23.05052307 11.91860962 23.853302 C11.92871741 25.49901984 11.93342722 27.1447785 11.93310547 28.79052734 C11.93747342 31.29724323 11.97379517 33.80218978 12.01171875 36.30859375 C12.01758856 37.91145235 12.02155685 39.51431926 12.0234375 41.1171875 C12.03780853 41.86112762 12.05217957 42.60506775 12.06698608 43.37155151 C12.01513981 49.33183655 10.07088327 52.79439538 6.03515625 57.046875 C-1.35748783 63.02652063 -8.16578166 63.25744788 -17.4375 62.4375 C-23.44932544 60.92013831 -27.20656051 57.02428898 -31.28515625 52.53515625 C-32.4375 50.4375 -32.4375 50.4375 -32.12109375 47.68359375 C-31.89550781 46.94238281 -31.66992188 46.20117188 -31.4375 45.4375 C-28.61262445 45.52058457 -26.92633268 45.92819265 -24.9453125 47.9921875 C-23.95910404 49.22367061 -22.99676354 50.47475217 -22.0625 51.74609375 C-19.37515833 54.54325467 -16.54056125 55.29941664 -12.75390625 55.7734375 C-6.78702246 55.85807415 -3.07222551 55.60875295 1.5625 51.4375 C2.18125 50.880625 2.8 50.32375 3.4375 49.75 C5.21159569 46.10324774 4.79232999 42.42121984 4.5625 38.4375 C3.634375 39.076875 2.70625 39.71625 1.75 40.375 C-4.09125391 44.15463488 -9.65076292 44.14014635 -16.4375 43.4375 C-23.58268786 41.39459413 -27.58631582 37.81935249 -31.37890625 31.5234375 C-34.37684577 25.61605851 -34.52639977 18.99932169 -32.6015625 12.703125 C-29.85228142 6.61411322 -26.24898522 2.73229602 -20.4375 -0.5625 C-14.1386886 -2.6621038 -6.11504343 -2.77310109 0 0 Z M-23.9765625 10.16796875 C-26.96250455 14.34661949 -28.24696908 18.05080813 -27.91796875 23.19921875 C-26.75667492 28.60914855 -23.79003115 32.87987441 -19.1875 35.9375 C-15.0211495 37.97982867 -10.97817912 38.10988576 -6.4375 37.4375 C-0.76273887 35.47315961 2.87650331 31.80949338 5.5625 26.4375 C6.0863576 21.18174835 6.22755372 16.79223905 3.875 12 C-0.9805666 6.61106329 -0.9805666 6.61106329 -7.57421875 4.19921875 C-14.57043228 3.99565358 -19.21836002 4.81801013 -23.9765625 10.16796875 Z " fill="#31B263" transform="translate(773.4375,592.5625)"/>
<path d="M0 0 C6.82913948 3.76780109 10.65597048 8.5890052 13.10546875 15.9375 C13.23046875 19.5625 13.23046875 19.5625 13.10546875 22.9375 C12.10546875 23.9375 12.10546875 23.9375 8.50366211 24.05102539 C6.90087019 24.05086625 5.29807315 24.04517063 3.6953125 24.03515625 C2.85327774 24.0337413 2.01124298 24.03232635 1.14369202 24.03086853 C-1.5565846 24.02525263 -4.25677953 24.01269748 -6.95703125 24 C-8.78320193 23.99498705 -10.60937391 23.99042379 -12.43554688 23.98632812 C-16.92190667 23.97527804 -21.40820509 23.95800279 -25.89453125 23.9375 C-25.28974999 25.22346189 -24.67602116 26.50521807 -24.05859375 27.78515625 C-23.71779785 28.49937744 -23.37700195 29.21359863 -23.02587891 29.94946289 C-21.09694812 33.33903634 -18.32034674 35.22459225 -14.89453125 36.9375 C-8.61137771 37.52513306 -4.49686015 36.93409453 1.10546875 33.9375 C3.98046875 34.25 3.98046875 34.25 6.10546875 34.9375 C6.10546875 37.1875 6.10546875 37.1875 5.10546875 39.9375 C-1.46214058 44.61060664 -8.01000483 44.89469532 -15.89453125 43.9375 C-22.85217716 42.02556153 -27.49501269 37.13246252 -31.01171875 30.984375 C-33.67354605 24.81270463 -33.31377564 18.10984244 -30.89453125 11.9375 C-24.57319636 0.42364002 -12.65914638 -4.64681216 0 0 Z M-23.20703125 11.375 C-25.26164498 14.14581686 -25.26164498 14.14581686 -25.89453125 18.9375 C-15.00453125 18.9375 -4.11453125 18.9375 7.10546875 18.9375 C4.22194964 12.20928874 1.9355624 7.76160065 -4.89453125 4.9375 C-12.8962187 3.801947 -17.60306911 5.46812098 -23.20703125 11.375 Z " fill="#2DB05F" transform="translate(460.89453125,592.0625)"/>
<path d="M0 0 C1.66611905 -0.042721 3.33382885 -0.04063832 5 0 C6.65079442 1.65079442 6.22549447 3.63736179 6.31640625 5.91015625 C6.35830078 6.89951172 6.40019531 7.88886719 6.44335938 8.90820312 C6.48267578 9.94912109 6.52199219 10.99003906 6.5625 12.0625 C6.60568359 13.10728516 6.64886719 14.15207031 6.69335938 15.22851562 C6.79981225 17.81886884 6.9018276 20.40932186 7 23 C7.50789062 22.71705078 8.01578125 22.43410156 8.5390625 22.14257812 C15.44393303 18.46385965 21.64002993 17.5658943 29.3359375 19.625 C34.7649899 21.95470831 38.02752296 25.99101619 41 31 C42.13917218 34.41751653 42.11338481 37.03487937 42.09765625 40.63671875 C42.09443359 41.93544922 42.09121094 43.23417969 42.08789062 44.57226562 C42.07953531 45.94401108 42.07107037 47.31575587 42.0625 48.6875 C42.05748335 50.07096195 42.05292073 51.45442563 42.04882812 52.83789062 C42.03702529 56.22530395 42.02056019 59.61263033 42 63 C40.34385343 63.38218767 38.67542976 63.71395102 37 64 C35.22872257 62.22872257 35.84906078 59.64096259 35.82421875 57.2421875 C35.78844727 55.46714844 35.78844727 55.46714844 35.75195312 53.65625 C35.70938673 51.15902141 35.67792034 48.66157601 35.65820312 46.1640625 C35.49825931 39.29019827 35.26199716 34.52336029 31 29 C26.34023137 25.64063192 21.57356615 25.11102619 16 26 C10.96054426 28.42640462 9.13203613 30.92314366 7 36 C6.50495463 39.17874708 6.50495463 39.17874708 6.48828125 42.4921875 C6.43510742 44.29042969 6.43510742 44.29042969 6.38085938 46.125 C6.35830078 47.3625 6.33574219 48.6 6.3125 49.875 C6.27833984 51.13570312 6.24417969 52.39640625 6.20898438 53.6953125 C6.12674833 56.79678616 6.05751532 59.89798569 6 63 C4.34385343 63.38218767 2.67542976 63.71395102 1 64 C0 63 0 63 -0.12025452 60.48802185 C-0.11803391 59.37105423 -0.11581329 58.25408661 -0.11352539 57.10327148 C-0.11344986 55.84203964 -0.11337433 54.5808078 -0.11329651 53.28135681 C-0.1081891 51.89460206 -0.10297309 50.50784771 -0.09765625 49.12109375 C-0.09579201 47.71004791 -0.09436814 46.29900143 -0.09336853 44.88795471 C-0.08954379 41.16759465 -0.0797139 37.4472734 -0.06866455 33.72692871 C-0.05844948 29.93319219 -0.05387071 26.13944942 -0.04882812 22.34570312 C-0.03809158 14.89711769 -0.0210157 7.44856428 0 0 Z " fill="#32B263" transform="translate(524,572)"/>
<path d="M0 0 C5.51373205 3.26910209 10.29823004 8.15300428 12.1875 14.375 C13.38082474 21.12391437 12.77055036 28.08452617 8.98828125 33.90234375 C5.32156816 38.40590428 1.25680785 41.73016165 -4.3125 43.5 C-11.05175337 44.14946497 -17.57873252 44.51363723 -23.3125 40.5 C-24.17875 39.9225 -25.045 39.345 -25.9375 38.75 C-30.36216484 34.55821226 -32.92009314 29.51462401 -33.515625 23.421875 C-33.6623627 16.62302844 -32.15178954 11.663578 -28.75 5.8125 C-20.93531022 -1.60143646 -10.14232764 -4.37473707 0 0 Z M-23.3125 9.5 C-26.77546549 14.17598166 -28.1450103 18.67242788 -27.3125 24.5 C-25.45530146 29.77364934 -23.10414753 33.42843107 -18.3125 36.5 C-13.96200335 37.95016555 -9.85915815 38.01070107 -5.3125 37.5 C-0.32180901 35.0046545 3.42506107 31.74627154 5.48046875 26.4609375 C6.85052973 21.62835875 6.93470727 17.98075963 4.8828125 13.359375 C2.39540807 9.49007922 -1.21554925 6.54847538 -5.3125 4.5 C-12.44792599 3.57159885 -18.0004873 4.43278052 -23.3125 9.5 Z " fill="#34B365" transform="translate(722.3125,592.5)"/>
<path d="M0 0 C5.62311371 3.32221541 9.69328237 8.03606934 12.125 14.0625 C13.27939278 21.11712254 12.9012877 27.0724246 9.6875 33.5 C6.11707614 38.27901695 1.64845062 42.25768122 -4.3125 43.5 C-12.31950472 44.52842262 -18.47405383 43.97695005 -25.21484375 39.3515625 C-30.09737115 35.04184558 -32.88244279 29.89981609 -33.515625 23.421875 C-33.66559949 16.47305716 -32.53584841 11.14398189 -28 5.75 C-19.87789302 -1.04990351 -10.32700701 -4.59653057 0 0 Z M-22.3125 8.5 C-26.42628919 13.8046229 -27.86275047 17.78694424 -27.3125 24.5 C-25.62809135 30.15403412 -22.76654831 33.80537453 -17.59375 36.65234375 C-13.46109354 38.18793699 -9.62890883 38.27622814 -5.3125 37.5 C-0.50939712 35.14376085 2.7446166 31.9563663 5.6875 27.5 C7.04261701 22.9441465 6.92894908 19.39034346 5.6875 14.8125 C2.96535414 10.30394592 -0.5725029 6.86999855 -5.3125 4.5 C-12.15672703 3.73674982 -16.79785628 4.30887077 -22.3125 8.5 Z " fill="#34B365" transform="translate(652.3125,592.5)"/>
<path d="M0 0 C1.65 0 3.3 0 5 0 C6.85594207 4.37634785 8.70723236 8.75462235 10.55419922 13.13476562 C11.18345026 14.62521672 11.81397934 16.1151289 12.44580078 17.60449219 C13.35263534 19.74274259 14.25488789 21.88287552 15.15625 24.0234375 C15.44060913 24.69120209 15.72496826 25.35896667 16.01794434 26.04696655 C18 30.77225659 18 30.77225659 18 33 C18.66 33 19.32 33 20 33 C20.17112305 31.95924316 20.17112305 31.95924316 20.34570312 30.89746094 C21.08246456 27.63481737 22.20269821 24.73673013 23.46875 21.640625 C23.95730469 20.44308594 24.44585938 19.24554687 24.94921875 18.01171875 C25.20364746 17.39474121 25.45807617 16.77776367 25.72021484 16.14208984 C26.50246335 14.24402287 27.27711618 12.34298581 28.05078125 10.44140625 C31.86312386 1.13687614 31.86312386 1.13687614 33 0 C34.66617115 -0.04063832 36.33388095 -0.042721 38 0 C38.57099157 5.89904919 36.56440306 10.20998471 34.2734375 15.5 C33.88813873 16.41273682 33.50283997 17.32547363 33.10586548 18.26586914 C31.8722346 21.18160527 30.62388104 24.09076804 29.375 27 C28.55761793 28.92536727 27.7412021 30.85114505 26.92578125 32.77734375 C25.35097208 36.49520288 23.76175786 40.20640978 22.16308594 43.9140625 C20.80407937 47.07742325 19.49519464 50.2507566 18.25097656 53.4609375 C17.98926666 54.12037354 17.72755676 54.77980957 17.45791626 55.45922852 C16.78203672 57.17192674 16.12572036 58.89231053 15.47119141 60.61328125 C14 63 14 63 11.32958984 63.85546875 C10.5608252 63.90316406 9.79206055 63.95085938 9 64 C7.01719611 58.02905646 10.12857121 53.89508973 12.75 48.5703125 C15.09640831 41.86838376 12.50714748 36.1938923 9.8046875 30.01953125 C9.1652349 28.51112268 8.52591588 27.00265747 7.88671875 25.49414062 C6.87837839 23.14241479 5.86629743 20.79236623 4.85107422 18.44360352 C3.86769488 16.16036857 2.89812967 13.87163306 1.9296875 11.58203125 C1.62143036 10.88092728 1.31317322 10.1798233 0.99557495 9.45747375 C-1.07080609 4.55275665 -1.07080609 4.55275665 -0.68310547 1.52612305 C-0.34496826 0.77069214 -0.34496826 0.77069214 0 0 Z " fill="#36B466" transform="translate(789,591)"/>
<path d="M0 0 C1.65 0 3.3 0 5 0 C5.33 1.65 5.66 3.3 6 5 C6.928125 4.360625 7.85625 3.72125 8.8125 3.0625 C14.6443163 -0.7110282 20.22458823 -0.61594652 27 0 C32.57388762 1.69462517 36.91844612 6.17255026 40 11 C41.68036888 15.29380497 42.24775326 18.85765589 42.23046875 23.45703125 C42.22853516 24.65134766 42.22660156 25.84566406 42.22460938 27.07617188 C42.20624023 28.9256543 42.20624023 28.9256543 42.1875 30.8125 C42.18685547 32.06482422 42.18621094 33.31714844 42.18554688 34.60742188 C42.14036515 43.85963485 42.14036515 43.85963485 41 45 C39.33382885 45.04063832 37.66611905 45.042721 36 45 C35.98541748 44.21351074 35.97083496 43.42702148 35.95581055 42.61669922 C35.88110637 39.03565042 35.78451793 35.45551089 35.6875 31.875 C35.65366211 30.01875 35.65366211 30.01875 35.61914062 28.125 C35.58369141 26.92617188 35.54824219 25.72734375 35.51171875 24.4921875 C35.47244263 22.84259033 35.47244263 22.84259033 35.43237305 21.15966797 C34.76143108 16.25660137 33.10168514 12.99420366 29.4375 9.6875 C24.96512018 6.59123705 21.35945149 6.35036952 16 7 C11.54771564 9.22614218 9.13266267 11.51018386 7 16 C5.98031868 19.2920755 5.80630117 22.42356713 5.68359375 25.859375 C5.64169922 26.97441406 5.59980469 28.08945312 5.55664062 29.23828125 C5.49766602 30.97658203 5.49766602 30.97658203 5.4375 32.75 C5.39431641 33.92433594 5.35113281 35.09867188 5.30664062 36.30859375 C5.20065206 39.20561451 5.09858362 42.10271935 5 45 C3.35 45 1.7 45 0 45 C0 30.15 0 15.3 0 0 Z " fill="#2DB05F" transform="translate(572,591)"/>
<path d="M0 0 C15.51 0 31.02 0 47 0 C47.495 2.475 47.495 2.475 48 5 C41.73191505 8.13404247 34.00793201 6 27 6 C27 24.81 27 43.62 27 63 C24.525 63.495 24.525 63.495 22 64 C21 63 21 63 20.87974548 60.71580505 C20.88196609 59.70542679 20.88418671 58.69504852 20.88647461 57.65405273 C20.88655014 56.5129454 20.88662567 55.37183807 20.88670349 54.19615173 C20.89186478 52.9545076 20.89702606 51.71286346 20.90234375 50.43359375 C20.9037587 49.16983414 20.90517365 47.90607452 20.90663147 46.60401917 C20.91129418 43.23875111 20.9202852 39.8735501 20.93133545 36.50830078 C20.94155154 33.0765033 20.94612951 29.64469891 20.95117188 26.21289062 C20.9622262 19.47524176 20.9789829 12.73762475 21 6 C20.43490723 6.00523682 19.86981445 6.01047363 19.28759766 6.01586914 C16.7334097 6.03662422 14.17923947 6.0496554 11.625 6.0625 C10.73554688 6.07087891 9.84609375 6.07925781 8.9296875 6.08789062 C7.65351563 6.09272461 7.65351563 6.09272461 6.3515625 6.09765625 C5.17327881 6.10551147 5.17327881 6.10551147 3.97119141 6.11352539 C2 6 2 6 0 5 C0 3.35 0 1.7 0 0 Z " fill="#2FB160" transform="translate(386,572)"/>
<path d="M0 0 C3.375 2.125 3.375 2.125 5.375 4.125 C5.375 5.445 5.375 6.765 5.375 8.125 C3.8125 8.875 3.8125 8.875 1.375 9.125 C0.34375 8.485625 -0.6875 7.84625 -1.75 7.1875 C-6.22441105 4.42587426 -10.50050362 4.28644605 -15.625 5.125 C-19.99372308 7.30936154 -23.10711211 9.92852018 -25.625 14.125 C-26.8919752 18.73297146 -26.86734197 22.26967538 -25.5625 26.875 C-23.0180808 31.14305801 -20.13018472 33.87240764 -15.625 36.125 C-9.70032635 36.6702797 -5.62460146 36.55329814 -0.625 33.125 C2.1875 32.9375 2.1875 32.9375 4.375 33.125 C4.87 35.105 4.87 35.105 5.375 37.125 C-0.80916738 42.4257149 -5.58397399 43.60706307 -13.625 43.4296875 C-20.12044686 42.76999368 -24.08030588 39.98630384 -28.5 35.3125 C-33.01430341 29.75959831 -34.2367345 24.22112022 -33.625 17.125 C-32.24535054 10.0762455 -29.31037603 5.50475732 -23.625 1.125 C-16.58397327 -3.15483978 -7.45134599 -3.62387865 0 0 Z " fill="#35B365" transform="translate(512.625,592.875)"/>
<path d="M0 0 C1.65 0 3.3 0 5 0 C5 19.14 5 38.28 5 58 C6.65 58 8.3 58 10 58 C10.66 58.66 11.32 59.32 12 60 C11.625 62.125 11.625 62.125 11 64 C9.18757948 64.02687279 7.37504767 64.04633715 5.5625 64.0625 C4.55316406 64.07410156 3.54382813 64.08570313 2.50390625 64.09765625 C0 64 0 64 -1 63 C-1.09920863 61.07238183 -1.12799365 59.14110646 -1.12939453 57.2109375 C-1.13254669 55.9729541 -1.13569885 54.7349707 -1.13894653 53.45947266 C-1.13715675 52.09798141 -1.1351058 50.73649049 -1.1328125 49.375 C-1.13348559 47.98876936 -1.13445566 46.60253883 -1.13571167 45.21630859 C-1.1371884 42.30760578 -1.1350349 39.39893363 -1.13037109 36.49023438 C-1.12467381 32.75403402 -1.12795294 29.01790548 -1.13394356 25.28170776 C-1.13754985 22.41820734 -1.13641027 19.55472407 -1.13381577 16.69122314 C-1.13314668 15.31325268 -1.13397426 13.93528068 -1.13629532 12.55731201 C-1.13882292 10.63456246 -1.13429024 8.71180748 -1.12939453 6.7890625 C-1.12859894 5.69287598 -1.12780334 4.59668945 -1.12698364 3.46728516 C-1 1 -1 1 0 0 Z " fill="#31B262" transform="translate(671,572)"/>
<path d="M0 0 C0.66 0.33 1.32 0.66 2 1 C-3.61 6.61 -9.22 12.22 -15 18 C-15 12.50089132 -9.68936771 8.76735434 -6 5 C-4.05347234 3.22256464 -2.09090037 1.6083849 0 0 Z " fill="#67C68C" transform="translate(236,434)"/>
<path d="M0 0 C0.66 0.33 1.32 0.66 2 1 C-2.62 5.62 -7.24 10.24 -12 15 C-12 11.11566834 -10.82920314 10.32394504 -8.25 7.5 C-7.55390625 6.7265625 -6.8578125 5.953125 -6.140625 5.15625 C-4.19891408 3.20036601 -2.25069252 1.58156772 0 0 Z " fill="#62C487" transform="translate(726,479)"/>
<path d="M0 0 C0.66 0.33 1.32 0.66 2 1 C-0.97 3.97 -3.94 6.94 -7 10 C-7 6.04435836 -5.59478606 4.89133304 -3 2 C-2.01 1.34 -1.02 0.68 0 0 Z " fill="#67C68B" transform="translate(751,593)"/>
<path d="M0 0 C0.66 0.33 1.32 0.66 2 1 C-0.64 3.64 -3.28 6.28 -6 9 C-6 6 -6 6 -3.5625 3.375 C-2.716875 2.59125 -1.87125 1.8075 -1 1 C-0.67 0.67 -0.34 0.34 0 0 Z " fill="#63C488" transform="translate(699,594)"/>
</svg>
